<?xml version="1.0" standalone="no"?>
<!DOCTYPE svg PUBLIC "-//W3C//DTD SVG 20010904//EN"
 "http://www.w3.org/TR/2001/REC-SVG-20010904/DTD/svg10.dtd">
<svg version="1.0" xmlns="http://www.w3.org/2000/svg"
 width="512.000000pt" height="512.000000pt" viewBox="0 0 512.000000 512.000000"
 preserveAspectRatio="xMidYMid meet">

<g transform="translate(0.000000,512.000000) scale(0.100000,-0.100000)"
fill="#000000" stroke="none">
<path d="M4653 4216 l-41 -53 -107 -1 c-78 -1 -129 4 -186 18 -42 11 -91 20
-108 20 -27 0 -117 -40 -131 -58 -3 -4 -33 -20 -67 -36 -54 -25 -66 -28 -88
-18 -14 7 -41 12 -60 12 -19 0 -46 5 -60 12 -21 9 -28 9 -35 -2 -5 -7 -15 -10
-26 -6 -9 4 -53 -1 -97 -10 -77 -15 -101 -15 -141 1 -15 7 -17 5 -12 -13 5
-14 1 -24 -11 -31 -16 -9 -16 -10 4 -11 29 0 34 -10 24 -46 -8 -30 -18 -33
-59 -20 -21 7 -23 5 -17 -14 5 -15 0 -29 -16 -46 -12 -13 -18 -24 -12 -24 6 0
13 -11 15 -24 4 -19 -1 -25 -29 -35 -18 -7 -50 -32 -70 -57 -21 -24 -45 -47
-55 -50 -10 -3 -16 -10 -12 -15 8 -14 -42 -84 -75 -105 -14 -9 -54 -45 -88
-81 -50 -53 -57 -64 -38 -60 26 4 35 -8 35 -47 0 -24 -30 -42 -130 -78 -71
-26 -166 -36 -430 -48 -487 -20 -564 -27 -657 -60 -175 -62 -321 -148 -412
-243 l-33 -35 -83 28 c-46 16 -147 63 -224 105 -95 52 -154 78 -183 81 l-43 4
40 -19 40 -19 -90 2 c-73 1 -99 -3 -137 -21 -45 -21 -50 -27 -104 -139 -31
-65 -75 -175 -98 -244 -56 -167 -85 -213 -154 -241 -69 -28 -110 -27 -205 5
-43 15 -82 24 -88 21 -5 -4 -26 3 -45 14 -44 26 -44 26 -44 -2 0 -17 11 -30
43 -46 97 -53 134 -82 150 -116 9 -19 41 -54 72 -77 38 -30 53 -48 49 -60 -5
-17 3 -21 61 -32 27 -6 136 12 177 29 15 6 16 2 11 -32 -3 -21 -12 -50 -19
-65 -18 -35 -18 -43 1 -28 13 10 19 10 35 -5 18 -16 19 -15 40 25 12 23 24 39
27 36 14 -13 33 19 33 56 0 30 7 46 29 69 27 27 80 42 66 19 -3 -5 -12 -10
-19 -10 -7 0 -21 -9 -31 -21 -19 -20 -19 -20 8 -10 36 14 42 -1 12 -27 -14
-12 -25 -27 -25 -33 0 -6 21 8 46 30 44 38 120 71 166 71 37 0 97 40 150 101
49 54 58 60 76 50 11 -6 23 -25 27 -41 4 -17 25 -48 47 -70 l40 -38 -13 -51
c-9 -37 -10 -54 -2 -62 8 -8 14 -1 23 25 l11 36 39 -20 c22 -11 43 -20 49 -20
13 0 31 56 31 96 0 40 9 42 48 10 16 -14 77 -51 137 -83 114 -62 116 -64 135
-130 11 -36 10 -50 -10 -115 -12 -40 -40 -118 -62 -173 -22 -54 -40 -112 -40
-129 -1 -34 36 -72 80 -82 40 -9 199 -95 313 -169 102 -67 169 -128 169 -155
0 -21 20 -40 42 -40 15 0 17 -6 12 -37 -9 -60 8 -89 84 -137 80 -52 106 -60
109 -31 16 163 20 171 63 130 18 -17 55 -58 83 -93 48 -58 53 -62 93 -62 49 0
62 -19 44 -64 -5 -15 -10 -33 -10 -41 0 -19 65 -42 141 -50 71 -8 109 3 109
32 0 27 -89 151 -125 173 -18 11 -48 44 -66 72 -18 28 -59 70 -91 94 -96 70
-246 217 -262 256 -25 58 -31 184 -12 248 8 30 26 132 40 225 13 94 32 189 41
212 15 36 20 41 35 33 10 -6 35 -10 54 -10 19 0 45 -4 58 -9 40 -16 202 -42
320 -51 92 -8 124 -7 168 6 30 8 93 19 140 24 47 5 119 20 161 33 l77 24 33
-39 c29 -33 44 -42 98 -54 35 -8 103 -35 150 -60 47 -24 119 -53 160 -65 40
-11 90 -28 111 -39 l38 -19 -10 -43 c-19 -79 -139 -218 -222 -256 -24 -12 -47
-30 -50 -40 -6 -18 -9 -18 -56 6 l-50 25 -50 -24 c-28 -13 -50 -27 -50 -31 0
-5 -16 -25 -35 -47 -41 -45 -45 -79 -12 -117 l23 -27 69 18 c38 9 91 26 118
36 26 10 68 19 92 19 24 0 56 5 70 12 16 7 66 67 120 144 98 137 120 164 136
164 14 0 11 -45 -7 -89 -15 -37 -15 -44 1 -85 23 -60 14 -84 -33 -88 -35 -3
-37 -5 -40 -41 -4 -51 34 -116 100 -168 l51 -40 24 73 c13 40 28 106 33 146 5
40 19 94 30 119 24 54 25 79 5 126 -19 46 -33 146 -39 274 -4 68 -11 113 -22
135 -30 60 -74 106 -127 136 -29 16 -84 55 -122 86 -38 32 -76 61 -84 65 -11
7 -8 16 17 47 70 89 77 115 74 264 -1 74 2 174 7 221 9 78 17 102 79 225 94
189 136 252 178 270 50 21 87 18 114 -11 12 -13 53 -36 89 -50 36 -14 86 -38
111 -55 25 -16 50 -30 56 -30 6 0 24 -10 39 -22 16 -13 47 -32 69 -43 31 -15
47 -32 63 -67 37 -77 96 -96 177 -56 41 19 48 29 70 86 25 63 25 67 10 116
-24 81 -50 130 -130 253 -41 63 -86 137 -100 165 -14 27 -45 76 -69 108 -24
33 -55 92 -71 131 l-27 72 33 99 c18 54 30 101 27 104 -6 7 -56 -45 -57 -58 0
-5 -4 -8 -9 -8 -5 0 -5 15 -1 35 4 19 5 37 1 39 -4 3 -25 -19 -48 -48z m-2612
-2227 c64 -45 87 -145 69 -299 l-13 -107 -56 34 c-86 52 -94 63 -99 138 -2 36
1 86 8 112 12 51 49 143 57 143 3 0 18 -9 34 -21z"/>
</g>
</svg>
